<svg xmlns="http://www.w3.org/2000/svg" viewBox="0 16.329999923706055 287.010009765625 46.73000717163086" data-asc="1.0478515625" width="287.010009765625" height="46.73000717163086"><defs/><g fill="#fed136"><g transform="translate(0, 0)"><path d="M17.58 52.91Q12.50 52.91 8.52 50.85Q4.54 48.80 2.27 44.91Q0 41.02 0 35.45L0 33.81Q0 28.69 2.09 24.74Q4.17 20.80 8.04 18.57Q11.91 16.33 17.24 16.33Q20.95 16.33 24.30 17.32Q27.66 18.31 30.54 20.70L30.54 29.86L24.32 29.86L23.46 24.61Q22.63 24.05 21.72 23.63Q20.80 23.22 19.76 23.00Q18.73 22.78 17.53 22.78Q14.82 22.78 12.79 24.07Q10.77 25.37 9.66 27.82Q8.54 30.27 8.54 33.76L8.54 35.45Q8.54 38.72 9.69 41.20Q10.84 43.68 12.90 45.07Q14.97 46.46 17.68 46.46Q19.12 46.46 20.61 46.15Q22.09 45.85 23.49 45.34L24.34 40.31L30.59 40.31L30.59 49.27Q28.47 50.73 25.17 51.82Q21.88 52.91 17.58 52.91ZM32.42 52.39L32.42 47.39L36.08 47.02L43.46 39.23L36.65 31.35L33.11 31.01L33.11 25.98L47.88 25.98L47.88 30.69L46.19 31.03L49.05 34.99L51.98 31.05L50.05 30.69L50.05 25.98L64.18 25.98L64.18 31.01L61.08 31.35L54.57 38.79L61.67 47.02L65.23 47.39L65.23 52.39L50.24 52.39L50.24 47.71L51.98 47.34L48.97 43.55L46.00 47.39L47.88 47.71L47.88 52.39L32.42 52.39ZM75.49 63.06Q74.37 63.06 73.23 62.88Q72.09 62.70 70.90 62.35L71.92 56.23Q72.41 56.35 72.86 56.41Q73.32 56.47 73.80 56.47Q75.37 56.47 76.57 55.90Q77.78 55.32 78.10 54.13L78.34 53.20L69.85 31.52L66.31 31.01L66.31 25.98L82.18 25.98L82.18 31.01L78.91 31.49L82.45 42.19L82.50 42.38L82.64 42.38L86.82 31.42L83.79 31.01L83.79 25.98L98.22 25.98L98.22 31.01L95.09 31.45L85.21 56.25Q84.50 58.03 83.30 59.58Q82.10 61.13 80.20 62.10Q78.30 63.06 75.49 63.06ZM111.01 52.95Q106.86 52.95 104.70 50.74Q102.54 48.54 102.54 43.75L102.54 31.88L99.24 31.88L99.24 25.98L102.54 25.98L102.54 19.46L111.06 19.46L111.06 25.98L115.38 25.98L115.38 31.88L111.06 31.88L111.06 43.73Q111.06 45.02 111.65 45.53Q112.23 46.04 113.26 46.04Q113.70 46.04 114.14 46.00Q114.58 45.95 115.01 45.87L115.60 52.27Q114.48 52.59 113.34 52.77Q112.21 52.95 111.01 52.95ZM146.61 52.91Q141.09 52.91 137.27 50.76Q133.45 48.61 131.45 44.79Q129.44 40.97 129.44 35.94L129.44 34.33Q129.44 29.03 131.42 24.98Q133.40 20.92 137.16 18.63Q140.92 16.33 146.24 16.33Q149.88 16.33 153.54 17.44Q157.20 18.55 159.99 20.95L159.99 29.27L153.88 29.27L152.59 24.76Q151.76 23.90 150.23 23.34Q148.71 22.78 146.80 22.78Q143.87 22.78 141.89 24.23Q139.92 25.68 138.93 28.27Q137.94 30.86 137.94 34.28L137.94 35.94Q137.94 39.16 138.98 41.53Q140.01 43.90 142.02 45.19Q144.02 46.48 146.95 46.48Q148.49 46.48 150 46.17Q151.51 45.85 152.37 45.46L152.37 40.87L148.36 40.38L148.36 34.47L160.96 34.47L160.96 49.22Q158.08 51.07 154.46 51.99Q150.83 52.91 146.61 52.91ZM172.66 52.91Q168.82 52.91 166.41 50.73Q163.99 48.56 163.99 44.95Q163.99 41.24 166.98 38.87Q169.97 36.50 176.03 36.50L178.78 36.50L178.78 34.94Q178.78 33.35 177.88 32.24Q176.98 31.13 175.02 31.13Q174.19 31.13 173.47 31.34Q172.75 31.54 172.17 31.93L171.58 35.30L165.55 35.30L165.43 27.95Q167.68 26.95 170.13 26.22Q172.58 25.49 175.61 25.49Q181.01 25.49 184.18 27.97Q187.35 30.44 187.35 35.03L187.35 44.78Q187.35 45.34 187.37 45.87Q187.38 46.41 187.48 46.90L190.33 47.39L190.33 52.39L180.32 52.39Q180.00 51.95 179.64 51.22Q179.27 50.49 179.13 49.76Q177.93 51.25 176.44 52.08Q174.95 52.91 172.66 52.91M175.29 46.85Q176.22 46.85 177.16 46.47Q178.10 46.09 178.78 45.34L178.78 41.53L176.12 41.53Q174.39 41.53 173.45 42.29Q172.51 43.04 172.51 44.29Q172.51 45.48 173.29 46.17Q174.07 46.85 175.29 46.85ZM191.67 52.39L191.67 47.39L194.80 46.61L194.80 31.79L191.09 31.01L191.09 25.98L202.83 25.98L203.10 29.49Q204.39 27.59 206.25 26.54Q208.11 25.49 210.55 25.49Q213.01 25.49 214.78 26.55Q216.55 27.61 217.46 29.79Q218.65 27.73 220.54 26.61Q222.44 25.49 225 25.49Q228.83 25.49 231.03 28.08Q233.23 30.66 233.23 36.04L233.23 46.61L236.35 47.39L236.35 52.39L222.17 52.39L222.17 47.39L224.68 46.61L224.68 36.04Q224.68 33.72 223.96 32.89Q223.24 32.06 221.88 32.06Q220.75 32.06 219.85 32.48Q218.95 32.91 218.26 33.72L218.26 46.61L220.46 47.39L220.46 52.39L207.54 52.39L207.54 47.39L209.74 46.61L209.74 36.04Q209.74 33.72 209.03 32.89Q208.33 32.06 206.91 32.06Q205.81 32.06 204.91 32.48Q204.00 32.91 203.32 33.74L203.32 46.61L205.83 47.39L205.83 52.39L191.67 52.39ZM250.88 52.91Q247.00 52.91 244.10 51.23Q241.21 49.56 239.61 46.66Q238.01 43.75 238.01 40.09L238.01 39.18Q238.01 35.16 239.43 32.07Q240.84 28.98 243.58 27.23Q246.31 25.49 250.29 25.49Q253.88 25.49 256.36 26.87Q258.84 28.25 260.13 30.92Q261.43 33.59 261.43 37.50L261.43 41.92L246.90 41.92L246.88 42.09Q247.07 43.33 247.72 44.30Q248.36 45.26 249.51 45.83Q250.66 46.39 252.34 46.39Q254.00 46.39 255.60 46.01Q257.20 45.63 258.98 44.80L260.94 49.98Q259.16 51.25 256.59 52.08Q254.03 52.91 250.88 52.91M246.90 36.62L253.61 36.62L253.61 35.99Q253.61 34.57 253.33 33.62Q253.05 32.67 252.37 32.18Q251.68 31.69 250.49 31.69Q249.19 31.69 248.43 32.31Q247.66 32.93 247.30 34.02Q246.95 35.11 246.80 36.50L246.90 36.62ZM276.10 52.91Q272.97 52.91 270.28 52.33Q267.58 51.76 265.41 50.76L265.31 42.53L271.09 42.53L272.07 46.36Q272.58 46.68 273.39 46.91Q274.19 47.14 275.32 47.14Q277.39 47.14 278.17 46.58Q278.96 46.02 278.96 45.17Q278.96 44.34 278.06 43.64Q277.17 42.94 274.27 42.41Q269.63 41.50 267.43 39.32Q265.23 37.13 265.23 33.86Q265.23 31.64 266.26 29.76Q267.29 27.88 269.62 26.72Q271.95 25.56 275.85 25.56Q278.83 25.56 281.53 26.07Q284.23 26.59 285.96 27.37L285.94 35.33L280.18 35.33L279.44 31.91Q278.88 31.52 278.17 31.32Q277.47 31.13 276.59 31.13Q274.95 31.13 274.19 31.71Q273.44 32.30 273.44 33.23Q273.44 33.76 273.77 34.30Q274.10 34.84 275.07 35.33Q276.05 35.82 277.93 36.23Q282.45 37.23 284.73 39.01Q287.01 40.80 287.01 44.43Q287.01 48.34 284.22 50.62Q281.42 52.91 276.10 52.91Z"/></g></g></svg>